<svg width="12" height="16" viewBox="0 0 12 16" fill="none" xmlns="http://www.w3.org/2000/svg">
<g clip-path="url(#clip0_558_1109)">
<path d="M2 0C0.896875 0 0 0.896875 0 2V14C0 15.1031 0.896875 16 2 16H10C11.1031 16 12 15.1031 12 14V5H8C7.44688 5 7 4.55312 7 4V0H2ZM8 0V4H12L8 0ZM6.75 12.75C6.75 13.1656 6.41563 13.5 6 13.5C5.58437 13.5 5.25 13.1656 5.25 12.75V9.55937L4.28125 10.5281C3.9875 10.8219 3.5125 10.8219 3.22187 10.5281C2.93125 10.2344 2.92812 9.75937 3.22187 9.46875L5.47188 7.21875C5.76562 6.925 6.24062 6.925 6.53125 7.21875L8.78125 9.46875C9.075 9.7625 9.075 10.2375 8.78125 10.5281C8.4875 10.8187 8.0125 10.8219 7.72188 10.5281L6.75313 9.55937V12.75H6.75Z" fill="#212121"/>
</g>
<defs>
<clipPath id="clip0_558_1109">
<rect width="12" height="16" fill="white"/>
</clipPath>
</defs>
</svg>
