<svg width="20" height="16" viewBox="0 0 20 16" fill="none" xmlns="http://www.w3.org/2000/svg">
<g clip-path="url(#clip0_591_2655)">
<path d="M10.0005 1C9.74736 1 9.49736 1.04375 9.25986 1.12812L0.494231 4.29375C0.197356 4.40312 0.000481008 4.68437 0.000481008 5C0.000481008 5.31563 0.197356 5.59688 0.494231 5.70625L2.30361 6.35938C1.79111 7.16562 1.50048 8.11875 1.50048 9.12187V10C1.50048 10.8875 1.16298 11.8031 0.803606 12.525C0.600481 12.9312 0.369231 13.3312 0.100481 13.7C0.000481009 13.8344 -0.027644 14.0094 0.028606 14.1687C0.084856 14.3281 0.216106 14.4469 0.378606 14.4875L2.37861 14.9875C2.50986 15.0219 2.65048 14.9969 2.76611 14.925C2.88173 14.8531 2.96298 14.7344 2.98798 14.6C3.25673 13.2625 3.12236 12.0625 2.92236 11.2031C2.82236 10.7594 2.68798 10.3063 2.50048 9.89062V9.12187C2.50048 8.17812 2.81923 7.2875 3.37236 6.575C3.77548 6.09062 4.29736 5.7 4.90986 5.45937L9.81611 3.53125C10.0724 3.43125 10.363 3.55625 10.463 3.8125C10.563 4.06875 10.438 4.35937 10.1817 4.45937L5.27548 6.3875C4.88798 6.54062 4.54736 6.775 4.26923 7.0625L9.25673 8.8625C9.49423 8.94688 9.74423 8.99063 9.99736 8.99063C10.2505 8.99063 10.5005 8.94688 10.738 8.8625L19.5067 5.70625C19.8036 5.6 20.0005 5.31563 20.0005 5C20.0005 4.68437 19.8036 4.40312 19.5067 4.29375L10.7411 1.12812C10.5036 1.04375 10.2536 1 10.0005 1ZM4.00048 12.75C4.00048 13.8531 6.68798 15 10.0005 15C13.313 15 16.0005 13.8531 16.0005 12.75L15.5224 8.20625L11.0786 9.8125C10.7317 9.9375 10.3661 10 10.0005 10C9.63486 10 9.26611 9.9375 8.92236 9.8125L4.47861 8.20625L4.00048 12.75Z" fill="white"/>
</g>
<defs>
<clipPath id="clip0_591_2655">
<rect width="20" height="16" fill="white"/>
</clipPath>
</defs>
</svg>
