<svg width="16" height="17" viewBox="0 0 16 17" fill="none" xmlns="http://www.w3.org/2000/svg">
<path d="M8.23603 8.7359C8.17352 8.79841 8.08873 8.83353 8.00033 8.83353C7.91192 8.83353 7.82714 8.79841 7.76462 8.7359C7.70211 8.67338 7.66699 8.5886 7.66699 8.50019C7.66699 8.41179 7.70211 8.327 7.76462 8.26449C7.82714 8.20198 7.91192 8.16686 8.00033 8.16686C8.08873 8.16686 8.17352 8.20198 8.23603 8.26449C8.29854 8.327 8.33366 8.41179 8.33366 8.50019C8.33366 8.5886 8.29854 8.67338 8.23603 8.7359Z" fill="black"/>
<path d="M8.23603 14.0692C8.17352 14.1317 8.08873 14.1669 8.00033 14.1669C7.91192 14.1669 7.82714 14.1317 7.76462 14.0692C7.70211 14.0067 7.66699 13.9219 7.66699 13.8335C7.66699 13.7451 7.70211 13.6603 7.76462 13.5978C7.82714 13.5353 7.91192 13.5002 8.00033 13.5002C8.08873 13.5002 8.17352 13.5353 8.23603 13.5978C8.29854 13.6603 8.33366 13.7451 8.33366 13.8335C8.33366 13.9219 8.29854 14.0067 8.23603 14.0692Z" fill="black"/>
<path d="M8.23603 3.40256C8.17352 3.46507 8.08873 3.50019 8.00033 3.50019C7.91192 3.50019 7.82714 3.46507 7.76462 3.40256C7.70211 3.34005 7.66699 3.25527 7.66699 3.16686C7.66699 3.07845 7.70211 2.99367 7.76462 2.93116C7.82714 2.86865 7.91192 2.83353 8.00033 2.83353C8.08873 2.83353 8.17352 2.86865 8.23603 2.93116C8.29854 2.99367 8.33366 3.07845 8.33366 3.16686C8.33366 3.25527 8.29854 3.34005 8.23603 3.40256Z" fill="black"/>
<path d="M8.23603 8.7359C8.17352 8.79841 8.08873 8.83353 8.00033 8.83353C7.91192 8.83353 7.82714 8.79841 7.76462 8.7359C7.70211 8.67338 7.66699 8.5886 7.66699 8.50019C7.66699 8.41179 7.70211 8.327 7.76462 8.26449C7.82714 8.20198 7.91192 8.16686 8.00033 8.16686C8.08873 8.16686 8.17352 8.20198 8.23603 8.26449C8.29854 8.327 8.33366 8.41179 8.33366 8.50019C8.33366 8.5886 8.29854 8.67338 8.23603 8.7359Z" stroke="black" stroke-width="1.33333" stroke-linecap="round" stroke-linejoin="round"/>
<path d="M8.23603 14.0692C8.17352 14.1317 8.08873 14.1669 8.00033 14.1669C7.91192 14.1669 7.82714 14.1317 7.76462 14.0692C7.70211 14.0067 7.66699 13.9219 7.66699 13.8335C7.66699 13.7451 7.70211 13.6603 7.76462 13.5978C7.82714 13.5353 7.91192 13.5002 8.00033 13.5002C8.08873 13.5002 8.17352 13.5353 8.23603 13.5978C8.29854 13.6603 8.33366 13.7451 8.33366 13.8335C8.33366 13.9219 8.29854 14.0067 8.23603 14.0692Z" stroke="black" stroke-width="1.33333" stroke-linecap="round" stroke-linejoin="round"/>
<path d="M8.23603 3.40256C8.17352 3.46507 8.08873 3.50019 8.00033 3.50019C7.91192 3.50019 7.82714 3.46507 7.76462 3.40256C7.70211 3.34005 7.66699 3.25527 7.66699 3.16686C7.66699 3.07845 7.70211 2.99367 7.76462 2.93116C7.82714 2.86865 7.91192 2.83353 8.00033 2.83353C8.08873 2.83353 8.17352 2.86865 8.23603 2.93116C8.29854 2.99367 8.33366 3.07845 8.33366 3.16686C8.33366 3.25527 8.29854 3.34005 8.23603 3.40256Z" stroke="black" stroke-width="1.33333" stroke-linecap="round" stroke-linejoin="round"/>
</svg>
