<svg width="20" height="20" viewBox="0 0 20 20" fill="none" xmlns="http://www.w3.org/2000/svg">
<g clip-path="url(#clip0_555_1116)">
<path fill-rule="evenodd" clip-rule="evenodd" d="M9.99998 6.66668C9.11592 6.66668 8.26808 7.01787 7.64296 7.64299C7.01783 8.26811 6.66665 9.11596 6.66665 10C6.66665 10.8841 7.01783 11.7319 7.64296 12.357C8.26808 12.9822 9.11592 13.3333 9.99998 13.3333C10.884 13.3333 11.7319 12.9822 12.357 12.357C12.9821 11.7319 13.3333 10.8841 13.3333 10C13.3333 9.11596 12.9821 8.26811 12.357 7.64299C11.7319 7.01787 10.884 6.66668 9.99998 6.66668ZM8.82147 8.8215C9.13403 8.50894 9.55795 8.33334 9.99998 8.33334C10.442 8.33334 10.8659 8.50894 11.1785 8.8215C11.4911 9.13406 11.6666 9.55798 11.6666 10C11.6666 10.442 11.4911 10.866 11.1785 11.1785C10.8659 11.4911 10.442 11.6667 9.99998 11.6667C9.55795 11.6667 9.13403 11.4911 8.82147 11.1785C8.50891 10.866 8.33331 10.442 8.33331 10C8.33331 9.55798 8.50891 9.13406 8.82147 8.8215Z" fill="#5C5E64"/>
<path fill-rule="evenodd" clip-rule="evenodd" d="M9.15081 0.833344C8.77227 0.833344 8.44129 1.08848 8.34493 1.45455L7.92263 3.05888L6.58093 3.62448L5.55389 2.71074C5.22413 2.41737 4.72282 2.43199 4.41072 2.74409L2.74406 4.41075C2.44214 4.71267 2.41727 5.19395 2.68645 5.52538L3.58656 6.63364L3.03459 7.99157L1.47719 8.35516C1.10008 8.4432 0.833313 8.77942 0.833313 9.16668V10.8333C0.833313 11.2091 1.0848 11.5384 1.44733 11.6373L3.05706 12.0764L3.62418 13.4218L2.71136 14.4454C2.41735 14.7751 2.4317 15.2769 2.74406 15.5893L4.41072 17.2559C4.71305 17.5583 5.19512 17.5827 5.52652 17.3126L6.63438 16.4095L7.95894 16.9543L8.35867 18.5374C8.45211 18.9074 8.78499 19.1667 9.16665 19.1667H10.8333C11.2148 19.1667 11.5476 18.9076 11.6412 18.5378L12.0419 16.954L13.4108 16.3871C13.5486 16.5026 13.7066 16.6383 13.8638 16.7751C14.02 16.9112 14.1652 17.0394 14.2714 17.1336C14.3245 17.1807 14.3677 17.2193 14.3976 17.2459L14.4429 17.2864C14.7724 17.5821 15.2762 17.569 15.5892 17.2559L17.2559 15.5893C17.5626 15.2826 17.5828 14.7919 17.3022 14.461L16.3945 13.3906L16.9562 12.0339L18.5429 11.6216C18.9102 11.5261 19.1666 11.1945 19.1666 10.815V9.16668C19.1666 8.78558 18.9081 8.45303 18.5388 8.35907L16.9619 7.95788L16.4016 6.60446L17.3031 5.53797C17.5828 5.20709 17.5623 4.7171 17.2559 4.41075L15.5892 2.74409C15.2816 2.43649 14.7892 2.41724 14.4585 2.69988L13.3999 3.60474L11.9988 3.02867L11.5851 1.45482C11.4888 1.08862 11.1578 0.833344 10.7791 0.833344H9.15081ZM15.5346 14.9535L14.9645 15.5236L14.9583 15.5182C14.6505 15.2502 14.254 14.9111 14.0305 14.7513C13.7965 14.584 13.4927 14.5492 13.2269 14.6593L11.0178 15.5743C10.7746 15.675 10.5933 15.8846 10.5288 16.1398L10.1846 17.5H9.81571L9.47212 16.1393C9.40748 15.8833 9.22535 15.6731 8.98117 15.5727L6.8095 14.6793C6.52672 14.563 6.20294 14.6109 5.96594 14.8041L5.05693 15.5451L4.47907 14.9673L5.2186 14.138C5.43269 13.8979 5.48949 13.556 5.36454 13.2596L4.43537 11.0555C4.33596 10.8196 4.1337 10.6426 3.8868 10.5752L2.49998 10.1969V9.82787L3.8336 9.51652C4.09706 9.45501 4.31427 9.26944 4.41614 9.0188L5.31614 6.80464C5.43061 6.52303 5.38265 6.20143 5.19101 5.96547L4.45391 5.05792L5.03338 4.47845L5.86607 5.21928C6.10613 5.43285 6.4476 5.48938 6.74368 5.36457L8.94785 4.4354C9.18609 4.33497 9.36422 4.12966 9.43003 3.87964L9.79318 2.50001H10.1366L10.4924 3.85354C10.5588 4.10618 10.7398 4.31307 10.9814 4.41241L13.2373 5.33991C13.5265 5.45882 13.8579 5.40581 14.0956 5.20264L14.9556 4.46751L15.5355 5.04735L14.801 5.91622C14.5998 6.15432 14.5483 6.48485 14.6675 6.77291L15.5817 8.98125C15.6822 9.22411 15.8914 9.40531 16.1462 9.47012L17.5 9.81454V10.1705L16.1354 10.5251C15.8825 10.5909 15.675 10.7714 15.575 11.0129L14.66 13.2229C14.5406 13.5114 14.5924 13.8425 14.7944 14.0806L15.5346 14.9535Z" fill="#5C5E64"/>
</g>
<defs>
<clipPath id="clip0_555_1116">
<rect width="20" height="20" fill="white"/>
</clipPath>
</defs>
</svg>
