<svg width="16" height="16" viewBox="0 0 16 16" fill="none" xmlns="http://www.w3.org/2000/svg">
<path d="M5.80472 5.13807C6.06507 4.87772 6.06507 4.45561 5.80472 4.19526C5.54437 3.93491 5.12226 3.93491 4.86191 4.19526L1.52858 7.5286C1.26823 7.78894 1.26823 8.21106 1.52858 8.4714L4.86191 11.8047C5.12226 12.0651 5.54437 12.0651 5.80472 11.8047C6.06507 11.5444 6.06507 11.1223 5.80472 10.8619L2.94279 8L5.80472 5.13807Z" fill="black"/>
<path d="M11.1381 4.19526C10.8777 3.93491 10.4556 3.93491 10.1952 4.19526C9.93489 4.45561 9.93489 4.87772 10.1952 5.13807L13.0572 8L10.1952 10.8619C9.93489 11.1223 9.93489 11.5444 10.1952 11.8047C10.4556 12.0651 10.8777 12.0651 11.1381 11.8047L14.4714 8.4714C14.7317 8.21106 14.7317 7.78894 14.4714 7.5286L11.1381 4.19526Z" fill="black"/>
</svg>
