<svg width="24" height="24" viewBox="0 0 24 24" fill="none" xmlns="http://www.w3.org/2000/svg">
<path d="M11.9998 14.9793C11.8665 14.9793 11.7371 14.9543 11.6118 14.9043C11.4865 14.8543 11.3825 14.7876 11.2998 14.7043L6.6998 10.1055C6.51647 9.92219 6.4248 9.68891 6.4248 9.40565C6.4248 9.12239 6.51647 8.88911 6.6998 8.70582C6.88314 8.52254 7.11647 8.43089 7.3998 8.43089C7.68314 8.43089 7.91647 8.52254 8.0998 8.70582L11.9998 12.6048L15.8998 8.70582C16.0831 8.52254 16.3165 8.43089 16.5998 8.43089C16.8831 8.43089 17.1165 8.52254 17.2998 8.70582C17.4831 8.88911 17.5748 9.12239 17.5748 9.40565C17.5748 9.68891 17.4831 9.92219 17.2998 10.1055L12.6998 14.7043C12.5998 14.8043 12.4915 14.8753 12.3748 14.9173C12.2581 14.9593 12.1331 14.9799 11.9998 14.9793Z" fill="#212121"/>
</svg>
