<svg width="17" height="19" viewBox="0 0 17 19" fill="none" xmlns="http://www.w3.org/2000/svg">
<path d="M5.13036 0.656836C5.33527 0.252344 5.75647 0 6.21563 0H10.7844C11.2435 0 11.6647 0.252344 11.8696 0.656836L12.1429 1.1875H15.7857C16.4574 1.1875 17 1.71816 17 2.375C17 3.03184 16.4574 3.5625 15.7857 3.5625H1.21429C0.542634 3.5625 0 3.03184 0 2.375C0 1.71816 0.542634 1.1875 1.21429 1.1875H4.85714L5.13036 0.656836ZM1.21429 4.75H15.7857V16.625C15.7857 17.935 14.6967 19 13.3571 19H3.64286C2.30335 19 1.21429 17.935 1.21429 16.625V4.75ZM4.85714 7.125C4.52321 7.125 4.25 7.39219 4.25 7.71875V16.0312C4.25 16.3578 4.52321 16.625 4.85714 16.625C5.19107 16.625 5.46429 16.3578 5.46429 16.0312V7.71875C5.46429 7.39219 5.19107 7.125 4.85714 7.125ZM8.5 7.125C8.16607 7.125 7.89286 7.39219 7.89286 7.71875V16.0312C7.89286 16.3578 8.16607 16.625 8.5 16.625C8.83393 16.625 9.10714 16.3578 9.10714 16.0312V7.71875C9.10714 7.39219 8.83393 7.125 8.5 7.125ZM12.1429 7.125C11.8089 7.125 11.5357 7.39219 11.5357 7.71875V16.0312C11.5357 16.3578 11.8089 16.625 12.1429 16.625C12.4768 16.625 12.75 16.3578 12.75 16.0312V7.71875C12.75 7.39219 12.4768 7.125 12.1429 7.125Z" fill="white"/>
</svg>
