<svg width="14" height="16" viewBox="0 0 14 16" fill="none" xmlns="http://www.w3.org/2000/svg">
<path d="M0 2C0 1.44687 0.446875 1 1 1C8.18125 1 14 6.81875 14 14C14 14.5531 13.5531 15 13 15C12.4469 15 12 14.5531 12 14C12 7.925 7.075 3 1 3C0.446875 3 0 2.55313 0 2ZM0 13C0 12.4696 0.210714 11.9609 0.585786 11.5858C0.960859 11.2107 1.46957 11 2 11C2.53043 11 3.03914 11.2107 3.41421 11.5858C3.78929 11.9609 4 12.4696 4 13C4 13.5304 3.78929 14.0391 3.41421 14.4142C3.03914 14.7893 2.53043 15 2 15C1.46957 15 0.960859 14.7893 0.585786 14.4142C0.210714 14.0391 0 13.5304 0 13ZM1 5C5.97188 5 10 9.02812 10 14C10 14.5531 9.55313 15 9 15C8.44687 15 8 14.5531 8 14C8 10.1344 4.86562 7 1 7C0.446875 7 0 6.55312 0 6C0 5.44688 0.446875 5 1 5Z" fill="#212121"/>
</svg>
