<svg width="14" height="16" viewBox="0 0 14 16" fill="none" xmlns="http://www.w3.org/2000/svg">
<path d="M2 1C0.896875 1 0 1.89688 0 3V13C0 14.1031 0.896875 15 2 15H12C13.1031 15 14 14.1031 14 13V3C14 1.89688 13.1031 1 12 1H2ZM3 4.25C3 3.83437 3.33437 3.5 3.75 3.5C8.03125 3.5 11.5 6.96875 11.5 11.25C11.5 11.6656 11.1656 12 10.75 12C10.3344 12 10 11.6656 10 11.25C10 7.79688 7.20312 5 3.75 5C3.33437 5 3 4.66563 3 4.25ZM3 7.25C3 6.83437 3.33437 6.5 3.75 6.5C6.37187 6.5 8.5 8.62813 8.5 11.25C8.5 11.6656 8.16562 12 7.75 12C7.33437 12 7 11.6656 7 11.25C7 9.45625 5.54375 8 3.75 8C3.33437 8 3 7.66563 3 7.25ZM3 11C3 10.7348 3.10536 10.4804 3.29289 10.2929C3.48043 10.1054 3.73478 10 4 10C4.26522 10 4.51957 10.1054 4.70711 10.2929C4.89464 10.4804 5 10.7348 5 11C5 11.2652 4.89464 11.5196 4.70711 11.7071C4.51957 11.8946 4.26522 12 4 12C3.73478 12 3.48043 11.8946 3.29289 11.7071C3.10536 11.5196 3 11.2652 3 11Z" fill="#212121"/>
</svg>
