<svg width="21" height="24" viewBox="0 0 21 24" fill="none" xmlns="http://www.w3.org/2000/svg">
<path d="M3.71429 3C2.21719 3 1 4.21719 1 5.71429V19.2857C1 20.7828 2.21719 22 3.71429 22H17.2857C18.7828 22 20 20.7828 20 19.2857V5.71429C20 4.21719 18.7828 3 17.2857 3H3.71429ZM9.48214 16.2321V13.5179H6.76786C6.20379 13.5179 5.75 13.0641 5.75 12.5C5.75 11.9359 6.20379 11.4821 6.76786 11.4821H9.48214V8.76786C9.48214 8.20379 9.93594 7.75 10.5 7.75C11.0641 7.75 11.5179 8.20379 11.5179 8.76786V11.4821H14.2321C14.7962 11.4821 15.25 11.9359 15.25 12.5C15.25 13.0641 14.7962 13.5179 14.2321 13.5179H11.5179V16.2321C11.5179 16.7962 11.0641 17.25 10.5 17.25C9.93594 17.25 9.48214 16.7962 9.48214 16.2321Z" fill="#F3F4FF"/>
</svg>
